<svg xmlns="http://www.w3.org/2000/svg" style="isolation:isolate" width="241" height="243"><g id="gear"><g clip-path="url(#b)" transform="translate(-287 -90)"><g clip-path="url(#c)" transform="translate(-196 -192)"><path d="M717.764 385.496l-24.765-4.132c-1.8-7.359-4.424-14.393-7.842-20.954l15.854-19.657c3.372-4.155 3.219-10.132-.336-14.141l-9.85-11.086c-3.57-4.005-9.49-4.852-14.007-1.999l-21.178 13.314c-9.315-6.508-19.867-11.315-31.249-14.103l-4.143-24.899a10.926 10.926 0 0 0-10.787-9.14h-14.843c-5.344 0-9.922 3.868-10.772 9.14l-4.166 24.906a93.16 93.16 0 0 0-26.286 10.922l-20.141-14.374a10.948 10.948 0 0 0-14.092 1.164l-10.486 10.494a10.937 10.937 0 0 0-1.155 14.091l14.407 20.18a93.38 93.38 0 0 0-10.837 26.093l-25.039 4.181c-5.264.869-9.139 5.432-9.139 10.788v14.831c0 5.355 3.875 9.918 9.139 10.788l25.039 4.181c1.892 7.675 4.639 15.006 8.289 21.804l-15.781 19.547c-3.36 4.15-3.219 10.131.336 14.137l9.841 11.086c3.571 4.012 9.495 4.844 14.011 1.998l21.484-13.496c9.09 6.218 19.374 10.788 30.41 13.496l4.166 24.902c.85 5.273 5.428 9.141 10.772 9.141h14.843c5.355 0 9.917-3.868 10.787-9.14l4.15-24.903a92.996 92.996 0 0 0 25.985-10.742l20.981 14.985c4.333 3.112 10.299 2.624 14.083-1.168l10.491-10.49c3.775-3.777 4.287-9.736 1.151-14.085l-14.937-20.943a92.91 92.91 0 0 0 10.856-26.176l24.764-4.135c5.28-.87 9.14-5.432 9.14-10.788v-14.831c-.008-5.355-3.868-9.918-9.148-10.787zm-115.46 65.078c-25.882 0-46.873-20.996-46.873-46.875 0-25.883 20.991-46.875 46.873-46.875 25.878 0 46.873 20.992 46.873 46.875 0 25.879-20.995 46.875-46.873 46.875z" fill="#489aff"/></g></g></g></svg>